<?xml version="1.0" encoding="utf-8"?>
<!-- Generator: Adobe Illustrator 17.0.2, SVG Export Plug-In . SVG Version: 6.00 Build 0)  -->
<!DOCTYPE svg PUBLIC "-//W3C//DTD SVG 1.1//EN" "http://www.w3.org/Graphics/SVG/1.1/DTD/svg11.dtd">
<svg version="1.1" id="Layer_1" xmlns="http://www.w3.org/2000/svg" xmlns:xlink="http://www.w3.org/1999/xlink" x="0px" y="0px"
	 width="50px" height="50px" viewBox="0 0 50 50" enable-background="new 0 0 50 50" xml:space="preserve">
<g>
	<path fill="#FFFFFF" d="M38.563,14.133c-0.027-0.386-0.324-0.691-0.689-0.691H11.482c-0.366,0-0.662,0.305-0.689,0.691
		l-0.005,19.175c0,0.413,0.311,0.747,0.695,0.747h26.392c0.384,0,0.695-0.334,0.695-0.747L38.563,14.133z M35.804,29.521H13.932
		l-0.09-13.384H35.78L35.804,29.521z"/>
	<path fill="#FFFFFF" d="M29.122,37.64c-1.111-0.299-1.389-1.195-1.389-2.39v-0.299h-3.056h-3.056v0.299
		c0,1.195-0.278,2.091-1.389,2.39c-0.269,0.072-0.278,0.597,0,0.597h4.445h4.445C29.4,38.237,29.392,37.712,29.122,37.64z"/>
</g>
</svg>
