<?xml version="1.0" encoding="utf-8"?>
<!-- Generator: Adobe Illustrator 17.0.2, SVG Export Plug-In . SVG Version: 6.00 Build 0)  -->
<!DOCTYPE svg PUBLIC "-//W3C//DTD SVG 1.1//EN" "http://www.w3.org/Graphics/SVG/1.1/DTD/svg11.dtd">
<svg version="1.1" id="Layer_1" xmlns="http://www.w3.org/2000/svg" xmlns:xlink="http://www.w3.org/1999/xlink" x="0px" y="0px"
	 width="50px" height="50px" viewBox="0 0 50 50" enable-background="new 0 0 50 50" xml:space="preserve">
<g>
	<g>
		<circle fill="#FFFFFF" cx="15.518" cy="17.816" r="3.765"/>
		<path fill="#FFFFFF" d="M24.238,30.687c0.337,0,0.679-0.129,0.936-0.386l4.849-4.847c0.515-0.514,0.517-1.349,0.002-1.863
			c-0.515-0.515-1.348-0.515-1.863,0l-3.915,3.854c0,0-4.184-4.761-5.257-4.761s-6.202,0-6.202,0c-1.242,0-2.54,1.137-2.54,2.38
			v9.416h9.731v-7.176l3.167,2.998C23.404,30.558,23.901,30.687,24.238,30.687z"/>
	</g>
	
		<polyline fill="none" stroke="#FFFFFF" stroke-width="2" stroke-linecap="round" stroke-linejoin="round" stroke-miterlimit="10" points="
		23,23 23,15 38,15 38,35 25,35 	"/>
</g>
</svg>
